<mxfile host="app.diagrams.net" modified="2023-11-03T08:46:31.182Z" agent="Mozilla/5.0 (Windows NT 10.0; Win64; x64) AppleWebKit/537.36 (KHTML, like Gecko) Chrome/118.0.0.0 Safari/537.36" etag="Pw-c_l9RrqXcAi_owMiJ" version="22.0.8" type="github">
  <diagram name="Page-1" id="LRfZ9DAuG3YdBRF1G2Z1">
    <mxGraphModel dx="3267" dy="1341" grid="1" gridSize="10" guides="1" tooltips="1" connect="1" arrows="1" fold="1" page="1" pageScale="1" pageWidth="827" pageHeight="1169" math="0" shadow="0">
      <root>
        <mxCell id="0" />
        <mxCell id="1" parent="0" />
        <mxCell id="xFLzBGfGATKs0-8QM4aO-128" value="" style="rounded=0;whiteSpace=wrap;html=1;" vertex="1" parent="1">
          <mxGeometry x="141.25" y="735" width="418.75" height="60" as="geometry" />
        </mxCell>
        <mxCell id="xFLzBGfGATKs0-8QM4aO-129" value="" style="rounded=0;whiteSpace=wrap;html=1;" vertex="1" parent="1">
          <mxGeometry x="141.25" y="710" width="418.75" height="25" as="geometry" />
        </mxCell>
        <mxCell id="xFLzBGfGATKs0-8QM4aO-75" value="" style="rounded=0;whiteSpace=wrap;html=1;" vertex="1" parent="1">
          <mxGeometry x="283" y="280" width="290" height="60" as="geometry" />
        </mxCell>
        <mxCell id="xFLzBGfGATKs0-8QM4aO-76" value="" style="rounded=0;whiteSpace=wrap;html=1;" vertex="1" parent="1">
          <mxGeometry x="283" y="255" width="290" height="25" as="geometry" />
        </mxCell>
        <mxCell id="xFLzBGfGATKs0-8QM4aO-77" value="" style="rounded=0;whiteSpace=wrap;html=1;" vertex="1" parent="1">
          <mxGeometry x="-350" y="695" width="125" height="60" as="geometry" />
        </mxCell>
        <mxCell id="xFLzBGfGATKs0-8QM4aO-78" value="" style="rounded=0;whiteSpace=wrap;html=1;" vertex="1" parent="1">
          <mxGeometry x="-350" y="670" width="125" height="25" as="geometry" />
        </mxCell>
        <mxCell id="xFLzBGfGATKs0-8QM4aO-79" value="" style="rounded=0;whiteSpace=wrap;html=1;" vertex="1" parent="1">
          <mxGeometry x="333" y="185" width="200" height="60" as="geometry" />
        </mxCell>
        <mxCell id="xFLzBGfGATKs0-8QM4aO-80" value="" style="rounded=0;whiteSpace=wrap;html=1;" vertex="1" parent="1">
          <mxGeometry x="333" y="160" width="200" height="25" as="geometry" />
        </mxCell>
        <mxCell id="xFLzBGfGATKs0-8QM4aO-81" value="" style="rounded=0;whiteSpace=wrap;html=1;" vertex="1" parent="1">
          <mxGeometry x="245" y="490" width="350" height="60" as="geometry" />
        </mxCell>
        <mxCell id="xFLzBGfGATKs0-8QM4aO-82" value="" style="rounded=0;whiteSpace=wrap;html=1;" vertex="1" parent="1">
          <mxGeometry x="245" y="465" width="350" height="25" as="geometry" />
        </mxCell>
        <mxCell id="xFLzBGfGATKs0-8QM4aO-83" value="" style="rounded=0;whiteSpace=wrap;html=1;" vertex="1" parent="1">
          <mxGeometry x="340" y="85" width="180" height="60" as="geometry" />
        </mxCell>
        <mxCell id="xFLzBGfGATKs0-8QM4aO-84" value="" style="rounded=0;whiteSpace=wrap;html=1;" vertex="1" parent="1">
          <mxGeometry x="340" y="60" width="180" height="25" as="geometry" />
        </mxCell>
        <mxCell id="xFLzBGfGATKs0-8QM4aO-85" value="" style="rounded=0;whiteSpace=wrap;html=1;" vertex="1" parent="1">
          <mxGeometry x="307.5" y="605" width="180" height="60" as="geometry" />
        </mxCell>
        <mxCell id="xFLzBGfGATKs0-8QM4aO-86" value="" style="rounded=0;whiteSpace=wrap;html=1;" vertex="1" parent="1">
          <mxGeometry x="307.5" y="580" width="180" height="25" as="geometry" />
        </mxCell>
        <mxCell id="xFLzBGfGATKs0-8QM4aO-87" value="" style="rounded=0;whiteSpace=wrap;html=1;" vertex="1" parent="1">
          <mxGeometry y="327.5" width="140" height="60" as="geometry" />
        </mxCell>
        <mxCell id="xFLzBGfGATKs0-8QM4aO-88" value="" style="rounded=0;whiteSpace=wrap;html=1;" vertex="1" parent="1">
          <mxGeometry y="302.5" width="140" height="25" as="geometry" />
        </mxCell>
        <mxCell id="xFLzBGfGATKs0-8QM4aO-73" value="" style="rounded=0;whiteSpace=wrap;html=1;" vertex="1" parent="1">
          <mxGeometry x="273" y="380" width="310" height="60" as="geometry" />
        </mxCell>
        <mxCell id="xFLzBGfGATKs0-8QM4aO-74" value="" style="rounded=0;whiteSpace=wrap;html=1;" vertex="1" parent="1">
          <mxGeometry x="273" y="355" width="310" height="25" as="geometry" />
        </mxCell>
        <mxCell id="xFLzBGfGATKs0-8QM4aO-70" value="" style="rounded=0;whiteSpace=wrap;html=1;" vertex="1" parent="1">
          <mxGeometry x="-433.5" y="585" width="203.5" height="60" as="geometry" />
        </mxCell>
        <mxCell id="xFLzBGfGATKs0-8QM4aO-71" value="" style="rounded=0;whiteSpace=wrap;html=1;" vertex="1" parent="1">
          <mxGeometry x="-433.5" y="560" width="203.5" height="25" as="geometry" />
        </mxCell>
        <mxCell id="xFLzBGfGATKs0-8QM4aO-68" value="" style="rounded=0;whiteSpace=wrap;html=1;" vertex="1" parent="1">
          <mxGeometry x="-405" y="490" width="260" height="60" as="geometry" />
        </mxCell>
        <mxCell id="xFLzBGfGATKs0-8QM4aO-69" value="" style="rounded=0;whiteSpace=wrap;html=1;" vertex="1" parent="1">
          <mxGeometry x="-405" y="465" width="260" height="25" as="geometry" />
        </mxCell>
        <mxCell id="xFLzBGfGATKs0-8QM4aO-67" value="" style="rounded=0;whiteSpace=wrap;html=1;" vertex="1" parent="1">
          <mxGeometry x="-465" y="385" width="350" height="60" as="geometry" />
        </mxCell>
        <mxCell id="xFLzBGfGATKs0-8QM4aO-66" value="" style="rounded=0;whiteSpace=wrap;html=1;" vertex="1" parent="1">
          <mxGeometry x="-465" y="360" width="350" height="25" as="geometry" />
        </mxCell>
        <mxCell id="xFLzBGfGATKs0-8QM4aO-60" value="" style="rounded=0;whiteSpace=wrap;html=1;" vertex="1" parent="1">
          <mxGeometry x="-390" y="60" width="200" height="25" as="geometry" />
        </mxCell>
        <mxCell id="xFLzBGfGATKs0-8QM4aO-61" value="" style="rounded=0;whiteSpace=wrap;html=1;" vertex="1" parent="1">
          <mxGeometry x="-390" y="85" width="200" height="60" as="geometry" />
        </mxCell>
        <mxCell id="xFLzBGfGATKs0-8QM4aO-64" value="" style="rounded=0;whiteSpace=wrap;html=1;" vertex="1" parent="1">
          <mxGeometry x="-415" y="260" width="250" height="25" as="geometry" />
        </mxCell>
        <mxCell id="xFLzBGfGATKs0-8QM4aO-65" value="" style="rounded=0;whiteSpace=wrap;html=1;" vertex="1" parent="1">
          <mxGeometry x="-415" y="285" width="250" height="60" as="geometry" />
        </mxCell>
        <mxCell id="xFLzBGfGATKs0-8QM4aO-59" value="" style="rounded=0;whiteSpace=wrap;html=1;" vertex="1" parent="1">
          <mxGeometry x="-390" y="160" width="200" height="25" as="geometry" />
        </mxCell>
        <mxCell id="xFLzBGfGATKs0-8QM4aO-58" value="" style="rounded=0;whiteSpace=wrap;html=1;" vertex="1" parent="1">
          <mxGeometry x="-390" y="185" width="200" height="60" as="geometry" />
        </mxCell>
        <mxCell id="xFLzBGfGATKs0-8QM4aO-2" value="School ID" style="text;html=1;strokeColor=none;fillColor=none;align=center;verticalAlign=middle;whiteSpace=wrap;rounded=0;" vertex="1" parent="1">
          <mxGeometry x="-330" y="100" width="60" height="30" as="geometry" />
        </mxCell>
        <mxCell id="xFLzBGfGATKs0-8QM4aO-3" value="School Name" style="text;html=1;strokeColor=none;fillColor=none;align=center;verticalAlign=middle;whiteSpace=wrap;rounded=0;" vertex="1" parent="1">
          <mxGeometry x="-250" y="100" width="60" height="30" as="geometry" />
        </mxCell>
        <mxCell id="xFLzBGfGATKs0-8QM4aO-4" value="Class ID" style="text;html=1;strokeColor=none;fillColor=none;align=center;verticalAlign=middle;whiteSpace=wrap;rounded=0;" vertex="1" parent="1">
          <mxGeometry x="-320" y="200" width="60" height="30" as="geometry" />
        </mxCell>
        <mxCell id="xFLzBGfGATKs0-8QM4aO-5" value="School ID" style="text;html=1;strokeColor=none;fillColor=none;align=center;verticalAlign=middle;whiteSpace=wrap;rounded=0;" vertex="1" parent="1">
          <mxGeometry x="-380" y="200" width="60" height="30" as="geometry" />
        </mxCell>
        <mxCell id="xFLzBGfGATKs0-8QM4aO-6" value="Class Name" style="text;html=1;strokeColor=none;fillColor=none;align=center;verticalAlign=middle;whiteSpace=wrap;rounded=0;" vertex="1" parent="1">
          <mxGeometry x="-250" y="200" width="60" height="30" as="geometry" />
        </mxCell>
        <mxCell id="xFLzBGfGATKs0-8QM4aO-7" value="Pupil ID" style="text;html=1;strokeColor=none;fillColor=none;align=center;verticalAlign=middle;whiteSpace=wrap;rounded=0;" vertex="1" parent="1">
          <mxGeometry x="-405" y="305" width="60" height="30" as="geometry" />
        </mxCell>
        <mxCell id="xFLzBGfGATKs0-8QM4aO-8" value="Pupil first name" style="text;html=1;strokeColor=none;fillColor=none;align=center;verticalAlign=middle;whiteSpace=wrap;rounded=0;" vertex="1" parent="1">
          <mxGeometry x="-345" y="305" width="60" height="30" as="geometry" />
        </mxCell>
        <mxCell id="xFLzBGfGATKs0-8QM4aO-9" value="pupil family name" style="text;html=1;strokeColor=none;fillColor=none;align=center;verticalAlign=middle;whiteSpace=wrap;rounded=0;" vertex="1" parent="1">
          <mxGeometry x="-275" y="305" width="60" height="30" as="geometry" />
        </mxCell>
        <mxCell id="xFLzBGfGATKs0-8QM4aO-10" value="subject id" style="text;html=1;strokeColor=none;fillColor=none;align=center;verticalAlign=middle;whiteSpace=wrap;rounded=0;" vertex="1" parent="1">
          <mxGeometry x="-345" y="715" width="60" height="30" as="geometry" />
        </mxCell>
        <mxCell id="xFLzBGfGATKs0-8QM4aO-11" value="subject" style="text;html=1;strokeColor=none;fillColor=none;align=center;verticalAlign=middle;whiteSpace=wrap;rounded=0;" vertex="1" parent="1">
          <mxGeometry x="-275" y="715" width="60" height="30" as="geometry" />
        </mxCell>
        <mxCell id="xFLzBGfGATKs0-8QM4aO-12" value="goal id" style="text;html=1;strokeColor=none;fillColor=none;align=center;verticalAlign=middle;whiteSpace=wrap;rounded=0;" vertex="1" parent="1">
          <mxGeometry x="333" y="205" width="60" height="30" as="geometry" />
        </mxCell>
        <mxCell id="xFLzBGfGATKs0-8QM4aO-13" value="goal name" style="text;html=1;strokeColor=none;fillColor=none;align=center;verticalAlign=middle;whiteSpace=wrap;rounded=0;" vertex="1" parent="1">
          <mxGeometry x="393" y="205" width="60" height="30" as="geometry" />
        </mxCell>
        <mxCell id="xFLzBGfGATKs0-8QM4aO-14" value="goal description" style="text;html=1;strokeColor=none;fillColor=none;align=center;verticalAlign=middle;whiteSpace=wrap;rounded=0;" vertex="1" parent="1">
          <mxGeometry x="463" y="205" width="60" height="30" as="geometry" />
        </mxCell>
        <mxCell id="xFLzBGfGATKs0-8QM4aO-15" value="plan id" style="text;html=1;strokeColor=none;fillColor=none;align=center;verticalAlign=middle;whiteSpace=wrap;rounded=0;" vertex="1" parent="1">
          <mxGeometry x="343" y="300" width="60" height="30" as="geometry" />
        </mxCell>
        <mxCell id="xFLzBGfGATKs0-8QM4aO-16" value="plan name" style="text;html=1;strokeColor=none;fillColor=none;align=center;verticalAlign=middle;whiteSpace=wrap;rounded=0;" vertex="1" parent="1">
          <mxGeometry x="403" y="300" width="60" height="30" as="geometry" />
        </mxCell>
        <mxCell id="xFLzBGfGATKs0-8QM4aO-17" value="plan author" style="text;html=1;strokeColor=none;fillColor=none;align=center;verticalAlign=middle;whiteSpace=wrap;rounded=0;" vertex="1" parent="1">
          <mxGeometry x="513" y="300" width="60" height="30" as="geometry" />
        </mxCell>
        <mxCell id="xFLzBGfGATKs0-8QM4aO-18" value="resource id" style="text;html=1;strokeColor=none;fillColor=none;align=center;verticalAlign=middle;whiteSpace=wrap;rounded=0;" vertex="1" parent="1">
          <mxGeometry x="283" y="400" width="60" height="30" as="geometry" />
        </mxCell>
        <mxCell id="xFLzBGfGATKs0-8QM4aO-19" value="resource name" style="text;html=1;strokeColor=none;fillColor=none;align=center;verticalAlign=middle;whiteSpace=wrap;rounded=0;" vertex="1" parent="1">
          <mxGeometry x="343" y="400" width="60" height="30" as="geometry" />
        </mxCell>
        <mxCell id="xFLzBGfGATKs0-8QM4aO-20" value="resource" style="text;html=1;strokeColor=none;fillColor=none;align=center;verticalAlign=middle;whiteSpace=wrap;rounded=0;" vertex="1" parent="1">
          <mxGeometry x="403" y="400" width="60" height="30" as="geometry" />
        </mxCell>
        <mxCell id="xFLzBGfGATKs0-8QM4aO-21" value="resource author" style="text;html=1;strokeColor=none;fillColor=none;align=center;verticalAlign=middle;whiteSpace=wrap;rounded=0;" vertex="1" parent="1">
          <mxGeometry x="473" y="400" width="60" height="30" as="geometry" />
        </mxCell>
        <mxCell id="xFLzBGfGATKs0-8QM4aO-22" value="plan" style="text;html=1;strokeColor=none;fillColor=none;align=center;verticalAlign=middle;whiteSpace=wrap;rounded=0;" vertex="1" parent="1">
          <mxGeometry x="467" y="300" width="60" height="30" as="geometry" />
        </mxCell>
        <mxCell id="xFLzBGfGATKs0-8QM4aO-23" value="lesson plan id" style="text;html=1;strokeColor=none;fillColor=none;align=center;verticalAlign=middle;whiteSpace=wrap;rounded=0;" vertex="1" parent="1">
          <mxGeometry x="-423.5" y="597.5" width="60" height="30" as="geometry" />
        </mxCell>
        <mxCell id="xFLzBGfGATKs0-8QM4aO-24" value="plan id" style="text;html=1;strokeColor=none;fillColor=none;align=center;verticalAlign=middle;whiteSpace=wrap;rounded=0;" vertex="1" parent="1">
          <mxGeometry x="-363.5" y="597.5" width="60" height="30" as="geometry" />
        </mxCell>
        <mxCell id="xFLzBGfGATKs0-8QM4aO-25" value="resource id" style="text;html=1;strokeColor=none;fillColor=none;align=center;verticalAlign=middle;whiteSpace=wrap;rounded=0;" vertex="1" parent="1">
          <mxGeometry x="-308.5" y="597.5" width="70" height="30" as="geometry" />
        </mxCell>
        <mxCell id="xFLzBGfGATKs0-8QM4aO-27" value="evidence id" style="text;html=1;strokeColor=none;fillColor=none;align=center;verticalAlign=middle;whiteSpace=wrap;rounded=0;" vertex="1" parent="1">
          <mxGeometry x="350" y="110" width="60" height="30" as="geometry" />
        </mxCell>
        <mxCell id="xFLzBGfGATKs0-8QM4aO-28" value="evidence" style="text;html=1;strokeColor=none;fillColor=none;align=center;verticalAlign=middle;whiteSpace=wrap;rounded=0;" vertex="1" parent="1">
          <mxGeometry x="410" y="110" width="60" height="30" as="geometry" />
        </mxCell>
        <mxCell id="xFLzBGfGATKs0-8QM4aO-29" value="pupil id" style="text;html=1;strokeColor=none;fillColor=none;align=center;verticalAlign=middle;whiteSpace=wrap;rounded=0;" vertex="1" parent="1">
          <mxGeometry x="307.5" y="630" width="60" height="30" as="geometry" />
        </mxCell>
        <mxCell id="xFLzBGfGATKs0-8QM4aO-30" value="goal id" style="text;html=1;strokeColor=none;fillColor=none;align=center;verticalAlign=middle;whiteSpace=wrap;rounded=0;" vertex="1" parent="1">
          <mxGeometry x="367.5" y="630" width="60" height="30" as="geometry" />
        </mxCell>
        <mxCell id="xFLzBGfGATKs0-8QM4aO-31" value="evidence id" style="text;html=1;strokeColor=none;fillColor=none;align=center;verticalAlign=middle;whiteSpace=wrap;rounded=0;" vertex="1" parent="1">
          <mxGeometry x="427.5" y="630" width="60" height="30" as="geometry" />
        </mxCell>
        <mxCell id="xFLzBGfGATKs0-8QM4aO-32" value="term id" style="text;html=1;strokeColor=none;fillColor=none;align=center;verticalAlign=middle;whiteSpace=wrap;rounded=0;" vertex="1" parent="1">
          <mxGeometry x="-405" y="500" width="60" height="30" as="geometry" />
        </mxCell>
        <mxCell id="xFLzBGfGATKs0-8QM4aO-33" value="term name" style="text;html=1;strokeColor=none;fillColor=none;align=center;verticalAlign=middle;whiteSpace=wrap;rounded=0;" vertex="1" parent="1">
          <mxGeometry x="-345" y="500" width="60" height="30" as="geometry" />
        </mxCell>
        <mxCell id="xFLzBGfGATKs0-8QM4aO-34" value="term start date" style="text;html=1;strokeColor=none;fillColor=none;align=center;verticalAlign=middle;whiteSpace=wrap;rounded=0;" vertex="1" parent="1">
          <mxGeometry x="-285" y="500" width="60" height="30" as="geometry" />
        </mxCell>
        <mxCell id="xFLzBGfGATKs0-8QM4aO-35" value="term end date" style="text;html=1;strokeColor=none;fillColor=none;align=center;verticalAlign=middle;whiteSpace=wrap;rounded=0;" vertex="1" parent="1">
          <mxGeometry x="-215" y="500" width="60" height="30" as="geometry" />
        </mxCell>
        <mxCell id="xFLzBGfGATKs0-8QM4aO-36" value="term id" style="text;html=1;strokeColor=none;fillColor=none;align=center;verticalAlign=middle;whiteSpace=wrap;rounded=0;" vertex="1" parent="1">
          <mxGeometry x="30" y="340" width="60" height="30" as="geometry" />
        </mxCell>
        <mxCell id="xFLzBGfGATKs0-8QM4aO-37" value="goal id" style="text;html=1;strokeColor=none;fillColor=none;align=center;verticalAlign=middle;whiteSpace=wrap;rounded=0;" vertex="1" parent="1">
          <mxGeometry x="80" y="340" width="60" height="30" as="geometry" />
        </mxCell>
        <mxCell id="xFLzBGfGATKs0-8QM4aO-38" value="teacher id" style="text;html=1;strokeColor=none;fillColor=none;align=center;verticalAlign=middle;whiteSpace=wrap;rounded=0;" vertex="1" parent="1">
          <mxGeometry x="-455" y="405" width="60" height="30" as="geometry" />
        </mxCell>
        <mxCell id="xFLzBGfGATKs0-8QM4aO-39" value="teacher name" style="text;html=1;strokeColor=none;fillColor=none;align=center;verticalAlign=middle;whiteSpace=wrap;rounded=0;" vertex="1" parent="1">
          <mxGeometry x="-385" y="405" width="60" height="30" as="geometry" />
        </mxCell>
        <mxCell id="xFLzBGfGATKs0-8QM4aO-40" value="username" style="text;html=1;strokeColor=none;fillColor=none;align=center;verticalAlign=middle;whiteSpace=wrap;rounded=0;" vertex="1" parent="1">
          <mxGeometry x="-325" y="405" width="60" height="30" as="geometry" />
        </mxCell>
        <mxCell id="xFLzBGfGATKs0-8QM4aO-41" value="email" style="text;html=1;strokeColor=none;fillColor=none;align=center;verticalAlign=middle;whiteSpace=wrap;rounded=0;" vertex="1" parent="1">
          <mxGeometry x="-251" y="405" width="60" height="30" as="geometry" />
        </mxCell>
        <mxCell id="xFLzBGfGATKs0-8QM4aO-42" value="school id" style="text;html=1;strokeColor=none;fillColor=none;align=center;verticalAlign=middle;whiteSpace=wrap;rounded=0;" vertex="1" parent="1">
          <mxGeometry x="-191" y="405" width="60" height="30" as="geometry" />
        </mxCell>
        <mxCell id="xFLzBGfGATKs0-8QM4aO-44" value="owner id(from teacher)" style="text;html=1;strokeColor=none;fillColor=none;align=center;verticalAlign=middle;whiteSpace=wrap;rounded=0;" vertex="1" parent="1">
          <mxGeometry x="-390" y="100" width="60" height="30" as="geometry" />
        </mxCell>
        <mxCell id="xFLzBGfGATKs0-8QM4aO-45" value="creation date" style="text;html=1;strokeColor=none;fillColor=none;align=center;verticalAlign=middle;whiteSpace=wrap;rounded=0;" vertex="1" parent="1">
          <mxGeometry x="293" y="300" width="60" height="30" as="geometry" />
        </mxCell>
        <mxCell id="xFLzBGfGATKs0-8QM4aO-47" value="creation date" style="text;html=1;strokeColor=none;fillColor=none;align=center;verticalAlign=middle;whiteSpace=wrap;rounded=0;" vertex="1" parent="1">
          <mxGeometry x="530" y="400" width="60" height="30" as="geometry" />
        </mxCell>
        <mxCell id="xFLzBGfGATKs0-8QM4aO-48" value="evidence date" style="text;html=1;strokeColor=none;fillColor=none;align=center;verticalAlign=middle;whiteSpace=wrap;rounded=0;" vertex="1" parent="1">
          <mxGeometry x="470" y="110" width="60" height="30" as="geometry" />
        </mxCell>
        <mxCell id="xFLzBGfGATKs0-8QM4aO-49" value="Class ID" style="text;html=1;strokeColor=none;fillColor=none;align=center;verticalAlign=middle;whiteSpace=wrap;rounded=0;" vertex="1" parent="1">
          <mxGeometry x="-225" y="305" width="60" height="30" as="geometry" />
        </mxCell>
        <mxCell id="xFLzBGfGATKs0-8QM4aO-50" value="report id" style="text;html=1;strokeColor=none;fillColor=none;align=center;verticalAlign=middle;whiteSpace=wrap;rounded=0;" vertex="1" parent="1">
          <mxGeometry x="250" y="512.5" width="50" height="30" as="geometry" />
        </mxCell>
        <mxCell id="xFLzBGfGATKs0-8QM4aO-51" value="report date" style="text;html=1;strokeColor=none;fillColor=none;align=center;verticalAlign=middle;whiteSpace=wrap;rounded=0;" vertex="1" parent="1">
          <mxGeometry x="300" y="512.5" width="60" height="30" as="geometry" />
        </mxCell>
        <mxCell id="xFLzBGfGATKs0-8QM4aO-52" value="report name" style="text;html=1;strokeColor=none;fillColor=none;align=center;verticalAlign=middle;whiteSpace=wrap;rounded=0;" vertex="1" parent="1">
          <mxGeometry x="360" y="512.5" width="60" height="30" as="geometry" />
        </mxCell>
        <mxCell id="xFLzBGfGATKs0-8QM4aO-54" value="class id" style="text;html=1;strokeColor=none;fillColor=none;align=center;verticalAlign=middle;whiteSpace=wrap;rounded=0;" vertex="1" parent="1">
          <mxGeometry x="410" y="512.5" width="60" height="30" as="geometry" />
        </mxCell>
        <mxCell id="xFLzBGfGATKs0-8QM4aO-55" value="teacher id" style="text;html=1;strokeColor=none;fillColor=none;align=center;verticalAlign=middle;whiteSpace=wrap;rounded=0;" vertex="1" parent="1">
          <mxGeometry x="470" y="512.5" width="60" height="30" as="geometry" />
        </mxCell>
        <mxCell id="xFLzBGfGATKs0-8QM4aO-56" value="pupil id" style="text;html=1;strokeColor=none;fillColor=none;align=center;verticalAlign=middle;whiteSpace=wrap;rounded=0;" vertex="1" parent="1">
          <mxGeometry x="530" y="512.5" width="60" height="30" as="geometry" />
        </mxCell>
        <mxCell id="xFLzBGfGATKs0-8QM4aO-57" value="Classroom" style="text;html=1;strokeColor=none;fillColor=none;align=center;verticalAlign=middle;whiteSpace=wrap;rounded=0;" vertex="1" parent="1">
          <mxGeometry x="-320" y="160" width="60" height="30" as="geometry" />
        </mxCell>
        <mxCell id="xFLzBGfGATKs0-8QM4aO-89" value="School" style="text;html=1;strokeColor=none;fillColor=none;align=center;verticalAlign=middle;whiteSpace=wrap;rounded=0;" vertex="1" parent="1">
          <mxGeometry x="-345" y="55" width="60" height="30" as="geometry" />
        </mxCell>
        <mxCell id="xFLzBGfGATKs0-8QM4aO-90" value="Pupil" style="text;html=1;strokeColor=none;fillColor=none;align=center;verticalAlign=middle;whiteSpace=wrap;rounded=0;" vertex="1" parent="1">
          <mxGeometry x="-345" y="260" width="60" height="30" as="geometry" />
        </mxCell>
        <mxCell id="xFLzBGfGATKs0-8QM4aO-91" value="Teacher" style="text;html=1;strokeColor=none;fillColor=none;align=center;verticalAlign=middle;whiteSpace=wrap;rounded=0;" vertex="1" parent="1">
          <mxGeometry x="-345" y="357.5" width="60" height="30" as="geometry" />
        </mxCell>
        <mxCell id="xFLzBGfGATKs0-8QM4aO-92" value="term" style="text;html=1;strokeColor=none;fillColor=none;align=center;verticalAlign=middle;whiteSpace=wrap;rounded=0;" vertex="1" parent="1">
          <mxGeometry x="-325" y="460" width="60" height="30" as="geometry" />
        </mxCell>
        <mxCell id="xFLzBGfGATKs0-8QM4aO-93" value="lesson plan" style="text;html=1;strokeColor=none;fillColor=none;align=center;verticalAlign=middle;whiteSpace=wrap;rounded=0;" vertex="1" parent="1">
          <mxGeometry x="-360" y="555" width="85" height="30" as="geometry" />
        </mxCell>
        <mxCell id="xFLzBGfGATKs0-8QM4aO-94" value="subject" style="text;html=1;strokeColor=none;fillColor=none;align=center;verticalAlign=middle;whiteSpace=wrap;rounded=0;" vertex="1" parent="1">
          <mxGeometry x="-325" y="667.5" width="60" height="30" as="geometry" />
        </mxCell>
        <mxCell id="xFLzBGfGATKs0-8QM4aO-95" value="evidence" style="text;html=1;strokeColor=none;fillColor=none;align=center;verticalAlign=middle;whiteSpace=wrap;rounded=0;" vertex="1" parent="1">
          <mxGeometry x="390" y="60" width="60" height="30" as="geometry" />
        </mxCell>
        <mxCell id="xFLzBGfGATKs0-8QM4aO-96" value="goal" style="text;html=1;strokeColor=none;fillColor=none;align=center;verticalAlign=middle;whiteSpace=wrap;rounded=0;" vertex="1" parent="1">
          <mxGeometry x="393" y="157.5" width="60" height="30" as="geometry" />
        </mxCell>
        <mxCell id="xFLzBGfGATKs0-8QM4aO-97" value="plan" style="text;html=1;strokeColor=none;fillColor=none;align=center;verticalAlign=middle;whiteSpace=wrap;rounded=0;" vertex="1" parent="1">
          <mxGeometry x="398" y="252.5" width="60" height="30" as="geometry" />
        </mxCell>
        <mxCell id="xFLzBGfGATKs0-8QM4aO-98" value="resource" style="text;html=1;strokeColor=none;fillColor=none;align=center;verticalAlign=middle;whiteSpace=wrap;rounded=0;" vertex="1" parent="1">
          <mxGeometry x="393" y="350" width="60" height="30" as="geometry" />
        </mxCell>
        <mxCell id="xFLzBGfGATKs0-8QM4aO-99" value="report" style="text;html=1;strokeColor=none;fillColor=none;align=center;verticalAlign=middle;whiteSpace=wrap;rounded=0;" vertex="1" parent="1">
          <mxGeometry x="398" y="465" width="60" height="30" as="geometry" />
        </mxCell>
        <mxCell id="xFLzBGfGATKs0-8QM4aO-100" value="pupil_goal_evidence" style="text;html=1;strokeColor=none;fillColor=none;align=center;verticalAlign=middle;whiteSpace=wrap;rounded=0;" vertex="1" parent="1">
          <mxGeometry x="367.5" y="575" width="60" height="30" as="geometry" />
        </mxCell>
        <mxCell id="xFLzBGfGATKs0-8QM4aO-101" value="term_goal" style="text;html=1;strokeColor=none;fillColor=none;align=center;verticalAlign=middle;whiteSpace=wrap;rounded=0;" vertex="1" parent="1">
          <mxGeometry x="56.5" y="300" width="60" height="30" as="geometry" />
        </mxCell>
        <mxCell id="xFLzBGfGATKs0-8QM4aO-102" value="" style="rounded=0;whiteSpace=wrap;html=1;" vertex="1" parent="1">
          <mxGeometry x="176.5" y="850" width="343.5" height="60" as="geometry" />
        </mxCell>
        <mxCell id="xFLzBGfGATKs0-8QM4aO-103" value="" style="rounded=0;whiteSpace=wrap;html=1;" vertex="1" parent="1">
          <mxGeometry x="176.5" y="825" width="343.5" height="25" as="geometry" />
        </mxCell>
        <mxCell id="xFLzBGfGATKs0-8QM4aO-104" value="lesson id" style="text;html=1;strokeColor=none;fillColor=none;align=center;verticalAlign=middle;whiteSpace=wrap;rounded=0;" vertex="1" parent="1">
          <mxGeometry x="186.5" y="862.5" width="60" height="30" as="geometry" />
        </mxCell>
        <mxCell id="xFLzBGfGATKs0-8QM4aO-105" value="lesson plan id" style="text;html=1;strokeColor=none;fillColor=none;align=center;verticalAlign=middle;whiteSpace=wrap;rounded=0;" vertex="1" parent="1">
          <mxGeometry x="246.5" y="862.5" width="60" height="30" as="geometry" />
        </mxCell>
        <mxCell id="xFLzBGfGATKs0-8QM4aO-106" value="evidence id" style="text;html=1;strokeColor=none;fillColor=none;align=center;verticalAlign=middle;whiteSpace=wrap;rounded=0;" vertex="1" parent="1">
          <mxGeometry x="306.5" y="865" width="70" height="30" as="geometry" />
        </mxCell>
        <mxCell id="xFLzBGfGATKs0-8QM4aO-107" value="lesson" style="text;html=1;strokeColor=none;fillColor=none;align=center;verticalAlign=middle;whiteSpace=wrap;rounded=0;" vertex="1" parent="1">
          <mxGeometry x="250" y="820" width="85" height="30" as="geometry" />
        </mxCell>
        <mxCell id="xFLzBGfGATKs0-8QM4aO-114" value="lesson date" style="text;html=1;strokeColor=none;fillColor=none;align=center;verticalAlign=middle;whiteSpace=wrap;rounded=0;" vertex="1" parent="1">
          <mxGeometry x="376.5" y="865" width="70" height="30" as="geometry" />
        </mxCell>
        <mxCell id="xFLzBGfGATKs0-8QM4aO-115" value="goal id" style="text;html=1;strokeColor=none;fillColor=none;align=center;verticalAlign=middle;whiteSpace=wrap;rounded=0;" vertex="1" parent="1">
          <mxGeometry x="450" y="862.5" width="70" height="30" as="geometry" />
        </mxCell>
        <mxCell id="xFLzBGfGATKs0-8QM4aO-117" value="pupil id" style="text;html=1;strokeColor=none;fillColor=none;align=center;verticalAlign=middle;whiteSpace=wrap;rounded=0;" vertex="1" parent="1">
          <mxGeometry x="240" y="755" width="70" height="30" as="geometry" />
        </mxCell>
        <mxCell id="xFLzBGfGATKs0-8QM4aO-118" value="goal id" style="text;html=1;strokeColor=none;fillColor=none;align=center;verticalAlign=middle;whiteSpace=wrap;rounded=0;" vertex="1" parent="1">
          <mxGeometry x="305" y="755" width="70" height="30" as="geometry" />
        </mxCell>
        <mxCell id="xFLzBGfGATKs0-8QM4aO-119" value="evidence id" style="text;html=1;strokeColor=none;fillColor=none;align=center;verticalAlign=middle;whiteSpace=wrap;rounded=0;" vertex="1" parent="1">
          <mxGeometry x="364.5" y="755" width="70" height="30" as="geometry" />
        </mxCell>
        <mxCell id="xFLzBGfGATKs0-8QM4aO-120" value="level 1-5" style="text;html=1;strokeColor=none;fillColor=none;align=center;verticalAlign=middle;whiteSpace=wrap;rounded=0;" vertex="1" parent="1">
          <mxGeometry x="434.5" y="755" width="70" height="30" as="geometry" />
        </mxCell>
        <mxCell id="xFLzBGfGATKs0-8QM4aO-125" value="date" style="text;html=1;strokeColor=none;fillColor=none;align=center;verticalAlign=middle;whiteSpace=wrap;rounded=0;" vertex="1" parent="1">
          <mxGeometry x="503" y="755" width="70" height="30" as="geometry" />
        </mxCell>
        <mxCell id="xFLzBGfGATKs0-8QM4aO-126" value="date" style="text;html=1;strokeColor=none;fillColor=none;align=center;verticalAlign=middle;whiteSpace=wrap;rounded=0;" vertex="1" parent="1">
          <mxGeometry x="503" y="755" width="70" height="30" as="geometry" />
        </mxCell>
        <mxCell id="xFLzBGfGATKs0-8QM4aO-127" value="ability level id" style="text;html=1;strokeColor=none;fillColor=none;align=center;verticalAlign=middle;whiteSpace=wrap;rounded=0;" vertex="1" parent="1">
          <mxGeometry x="180" y="755" width="70" height="30" as="geometry" />
        </mxCell>
        <mxCell id="xFLzBGfGATKs0-8QM4aO-130" value="ability" style="text;html=1;strokeColor=none;fillColor=none;align=center;verticalAlign=middle;whiteSpace=wrap;rounded=0;" vertex="1" parent="1">
          <mxGeometry x="283" y="710" width="60" height="30" as="geometry" />
        </mxCell>
        <mxCell id="xFLzBGfGATKs0-8QM4aO-131" value="" style="endArrow=none;html=1;rounded=0;exitX=0;exitY=0.5;exitDx=0;exitDy=0;entryX=0;entryY=0.5;entryDx=0;entryDy=0;" edge="1" parent="1" source="xFLzBGfGATKs0-8QM4aO-58" target="xFLzBGfGATKs0-8QM4aO-44">
          <mxGeometry width="50" height="50" relative="1" as="geometry">
            <mxPoint x="90" y="610" as="sourcePoint" />
            <mxPoint x="140" y="560" as="targetPoint" />
            <Array as="points">
              <mxPoint x="-420" y="215" />
              <mxPoint x="-420" y="115" />
            </Array>
          </mxGeometry>
        </mxCell>
        <mxCell id="xFLzBGfGATKs0-8QM4aO-132" value="" style="endArrow=none;html=1;rounded=0;entryX=0;entryY=0.25;entryDx=0;entryDy=0;exitX=0.053;exitY=-0.024;exitDx=0;exitDy=0;exitPerimeter=0;" edge="1" parent="1" source="xFLzBGfGATKs0-8QM4aO-66" target="xFLzBGfGATKs0-8QM4aO-44">
          <mxGeometry width="50" height="50" relative="1" as="geometry">
            <mxPoint x="-500" y="200" as="sourcePoint" />
            <mxPoint x="-450" y="150" as="targetPoint" />
            <Array as="points">
              <mxPoint x="-450" y="108" />
            </Array>
          </mxGeometry>
        </mxCell>
        <mxCell id="xFLzBGfGATKs0-8QM4aO-133" value="" style="endArrow=none;html=1;rounded=0;entryX=0.5;entryY=1;entryDx=0;entryDy=0;exitX=0.5;exitY=0;exitDx=0;exitDy=0;" edge="1" parent="1" source="xFLzBGfGATKs0-8QM4aO-64" target="xFLzBGfGATKs0-8QM4aO-58">
          <mxGeometry width="50" height="50" relative="1" as="geometry">
            <mxPoint x="-270" y="260" as="sourcePoint" />
            <mxPoint x="140" y="560" as="targetPoint" />
          </mxGeometry>
        </mxCell>
        <mxCell id="xFLzBGfGATKs0-8QM4aO-135" value="" style="rounded=0;whiteSpace=wrap;html=1;" vertex="1" parent="1">
          <mxGeometry x="-6.5" y="101.25" width="140" height="60" as="geometry" />
        </mxCell>
        <mxCell id="xFLzBGfGATKs0-8QM4aO-136" value="" style="rounded=0;whiteSpace=wrap;html=1;" vertex="1" parent="1">
          <mxGeometry x="-6.5" y="76.25" width="140" height="25" as="geometry" />
        </mxCell>
        <mxCell id="xFLzBGfGATKs0-8QM4aO-137" value="term id" style="text;html=1;strokeColor=none;fillColor=none;align=center;verticalAlign=middle;whiteSpace=wrap;rounded=0;" vertex="1" parent="1">
          <mxGeometry x="23.5" y="113.75" width="60" height="30" as="geometry" />
        </mxCell>
        <mxCell id="xFLzBGfGATKs0-8QM4aO-138" value="school id" style="text;html=1;strokeColor=none;fillColor=none;align=center;verticalAlign=middle;whiteSpace=wrap;rounded=0;" vertex="1" parent="1">
          <mxGeometry x="73.5" y="113.75" width="60" height="30" as="geometry" />
        </mxCell>
        <mxCell id="xFLzBGfGATKs0-8QM4aO-139" value="term_school" style="text;html=1;strokeColor=none;fillColor=none;align=center;verticalAlign=middle;whiteSpace=wrap;rounded=0;" vertex="1" parent="1">
          <mxGeometry x="50" y="73.75" width="60" height="30" as="geometry" />
        </mxCell>
        <mxCell id="xFLzBGfGATKs0-8QM4aO-140" value="" style="rounded=0;whiteSpace=wrap;html=1;" vertex="1" parent="1">
          <mxGeometry x="-10" y="211.25" width="140" height="60" as="geometry" />
        </mxCell>
        <mxCell id="xFLzBGfGATKs0-8QM4aO-141" value="" style="rounded=0;whiteSpace=wrap;html=1;" vertex="1" parent="1">
          <mxGeometry x="-10" y="186.25" width="140" height="25" as="geometry" />
        </mxCell>
        <mxCell id="xFLzBGfGATKs0-8QM4aO-142" value="class id" style="text;html=1;strokeColor=none;fillColor=none;align=center;verticalAlign=middle;whiteSpace=wrap;rounded=0;" vertex="1" parent="1">
          <mxGeometry x="20" y="223.75" width="60" height="30" as="geometry" />
        </mxCell>
        <mxCell id="xFLzBGfGATKs0-8QM4aO-143" value="subject id" style="text;html=1;strokeColor=none;fillColor=none;align=center;verticalAlign=middle;whiteSpace=wrap;rounded=0;" vertex="1" parent="1">
          <mxGeometry x="70" y="223.75" width="60" height="30" as="geometry" />
        </mxCell>
        <mxCell id="xFLzBGfGATKs0-8QM4aO-144" value="class_subject" style="text;html=1;strokeColor=none;fillColor=none;align=center;verticalAlign=middle;whiteSpace=wrap;rounded=0;" vertex="1" parent="1">
          <mxGeometry x="46.5" y="183.75" width="60" height="30" as="geometry" />
        </mxCell>
        <mxCell id="xFLzBGfGATKs0-8QM4aO-145" value="" style="endArrow=none;html=1;rounded=0;exitX=1;exitY=0.5;exitDx=0;exitDy=0;entryX=0;entryY=0.5;entryDx=0;entryDy=0;" edge="1" parent="1" source="xFLzBGfGATKs0-8QM4aO-68" target="xFLzBGfGATKs0-8QM4aO-135">
          <mxGeometry width="50" height="50" relative="1" as="geometry">
            <mxPoint x="-60" y="520" as="sourcePoint" />
            <mxPoint x="-10" y="470" as="targetPoint" />
            <Array as="points">
              <mxPoint x="-70" y="520" />
              <mxPoint x="-70" y="130" />
            </Array>
          </mxGeometry>
        </mxCell>
        <mxCell id="xFLzBGfGATKs0-8QM4aO-146" value="" style="endArrow=none;html=1;rounded=0;entryX=0.011;entryY=0.135;entryDx=0;entryDy=0;entryPerimeter=0;" edge="1" parent="1" target="xFLzBGfGATKs0-8QM4aO-135">
          <mxGeometry width="50" height="50" relative="1" as="geometry">
            <mxPoint x="-190" y="110" as="sourcePoint" />
            <mxPoint x="-30" y="100" as="targetPoint" />
          </mxGeometry>
        </mxCell>
        <mxCell id="xFLzBGfGATKs0-8QM4aO-147" value="" style="endArrow=none;html=1;rounded=0;exitX=1;exitY=0;exitDx=0;exitDy=0;" edge="1" parent="1" source="xFLzBGfGATKs0-8QM4aO-58">
          <mxGeometry width="50" height="50" relative="1" as="geometry">
            <mxPoint x="-60" y="290" as="sourcePoint" />
            <mxPoint x="-10" y="240" as="targetPoint" />
            <Array as="points">
              <mxPoint x="-100" y="185" />
              <mxPoint x="-100" y="240" />
            </Array>
          </mxGeometry>
        </mxCell>
        <mxCell id="xFLzBGfGATKs0-8QM4aO-148" value="" style="endArrow=none;html=1;rounded=0;entryX=-0.018;entryY=0.733;entryDx=0;entryDy=0;exitX=1;exitY=1;exitDx=0;exitDy=0;entryPerimeter=0;" edge="1" parent="1" source="xFLzBGfGATKs0-8QM4aO-78" target="xFLzBGfGATKs0-8QM4aO-140">
          <mxGeometry width="50" height="50" relative="1" as="geometry">
            <mxPoint x="-60" y="520" as="sourcePoint" />
            <mxPoint x="-10" y="470" as="targetPoint" />
            <Array as="points">
              <mxPoint x="-90" y="695" />
              <mxPoint x="-90" y="255" />
            </Array>
          </mxGeometry>
        </mxCell>
        <mxCell id="xFLzBGfGATKs0-8QM4aO-149" value="" style="endArrow=none;html=1;rounded=0;entryX=0;entryY=0.5;entryDx=0;entryDy=0;exitX=1;exitY=0.75;exitDx=0;exitDy=0;" edge="1" parent="1" source="xFLzBGfGATKs0-8QM4aO-68" target="xFLzBGfGATKs0-8QM4aO-87">
          <mxGeometry width="50" height="50" relative="1" as="geometry">
            <mxPoint x="-140" y="520" as="sourcePoint" />
            <mxPoint x="-10" y="470" as="targetPoint" />
            <Array as="points">
              <mxPoint x="-60" y="535" />
              <mxPoint x="-60" y="358" />
            </Array>
          </mxGeometry>
        </mxCell>
        <mxCell id="xFLzBGfGATKs0-8QM4aO-150" value="" style="endArrow=none;html=1;rounded=0;entryX=1;entryY=0;entryDx=0;entryDy=0;exitX=0;exitY=0;exitDx=0;exitDy=0;" edge="1" parent="1" source="xFLzBGfGATKs0-8QM4aO-79" target="xFLzBGfGATKs0-8QM4aO-87">
          <mxGeometry width="50" height="50" relative="1" as="geometry">
            <mxPoint x="-60" y="520" as="sourcePoint" />
            <mxPoint x="-10" y="470" as="targetPoint" />
            <Array as="points">
              <mxPoint x="200" y="185" />
              <mxPoint x="200" y="328" />
            </Array>
          </mxGeometry>
        </mxCell>
        <mxCell id="xFLzBGfGATKs0-8QM4aO-151" value="" style="endArrow=none;html=1;rounded=0;exitX=1;exitY=0.25;exitDx=0;exitDy=0;entryX=0;entryY=0.5;entryDx=0;entryDy=0;" edge="1" parent="1" source="xFLzBGfGATKs0-8QM4aO-70" target="xFLzBGfGATKs0-8QM4aO-75">
          <mxGeometry width="50" height="50" relative="1" as="geometry">
            <mxPoint x="-60" y="520" as="sourcePoint" />
            <mxPoint x="-10" y="470" as="targetPoint" />
            <Array as="points">
              <mxPoint x="160" y="600" />
              <mxPoint x="160" y="310" />
            </Array>
          </mxGeometry>
        </mxCell>
        <mxCell id="xFLzBGfGATKs0-8QM4aO-157" value="" style="endArrow=none;html=1;rounded=0;exitX=1;exitY=0.5;exitDx=0;exitDy=0;entryX=0;entryY=0.75;entryDx=0;entryDy=0;" edge="1" parent="1" source="xFLzBGfGATKs0-8QM4aO-70" target="xFLzBGfGATKs0-8QM4aO-73">
          <mxGeometry width="50" height="50" relative="1" as="geometry">
            <mxPoint x="-60" y="520" as="sourcePoint" />
            <mxPoint x="-10" y="470" as="targetPoint" />
            <Array as="points">
              <mxPoint x="180" y="615" />
              <mxPoint x="180" y="425" />
            </Array>
          </mxGeometry>
        </mxCell>
        <mxCell id="xFLzBGfGATKs0-8QM4aO-158" value="" style="endArrow=none;html=1;rounded=0;entryX=1;entryY=0.25;entryDx=0;entryDy=0;exitX=0;exitY=0.75;exitDx=0;exitDy=0;" edge="1" parent="1" source="xFLzBGfGATKs0-8QM4aO-75" target="xFLzBGfGATKs0-8QM4aO-67">
          <mxGeometry width="50" height="50" relative="1" as="geometry">
            <mxPoint x="-530" y="460" as="sourcePoint" />
            <mxPoint x="-480" y="410" as="targetPoint" />
            <Array as="points">
              <mxPoint x="220" y="325" />
              <mxPoint x="220" y="400" />
            </Array>
          </mxGeometry>
        </mxCell>
        <mxCell id="xFLzBGfGATKs0-8QM4aO-159" value="" style="endArrow=none;html=1;rounded=0;exitX=0.996;exitY=0.416;exitDx=0;exitDy=0;exitPerimeter=0;" edge="1" parent="1" source="xFLzBGfGATKs0-8QM4aO-67">
          <mxGeometry width="50" height="50" relative="1" as="geometry">
            <mxPoint x="-60" y="520" as="sourcePoint" />
            <mxPoint x="270" y="410" as="targetPoint" />
          </mxGeometry>
        </mxCell>
        <mxCell id="xFLzBGfGATKs0-8QM4aO-160" value="" style="endArrow=none;html=1;rounded=0;exitX=1;exitY=0.5;exitDx=0;exitDy=0;entryX=0.002;entryY=0.207;entryDx=0;entryDy=0;entryPerimeter=0;" edge="1" parent="1" source="xFLzBGfGATKs0-8QM4aO-6" target="xFLzBGfGATKs0-8QM4aO-81">
          <mxGeometry width="50" height="50" relative="1" as="geometry">
            <mxPoint x="-60" y="520" as="sourcePoint" />
            <mxPoint x="-10" y="470" as="targetPoint" />
            <Array as="points">
              <mxPoint x="-30" y="215" />
              <mxPoint x="-30" y="500" />
            </Array>
          </mxGeometry>
        </mxCell>
        <mxCell id="xFLzBGfGATKs0-8QM4aO-161" value="" style="endArrow=none;html=1;rounded=0;entryX=0;entryY=0;entryDx=0;entryDy=0;exitX=1;exitY=0.5;exitDx=0;exitDy=0;" edge="1" parent="1" source="xFLzBGfGATKs0-8QM4aO-67" target="xFLzBGfGATKs0-8QM4aO-81">
          <mxGeometry width="50" height="50" relative="1" as="geometry">
            <mxPoint x="180" y="580" as="sourcePoint" />
            <mxPoint x="230" y="530" as="targetPoint" />
            <Array as="points">
              <mxPoint x="50" y="415" />
              <mxPoint x="50" y="490" />
            </Array>
          </mxGeometry>
        </mxCell>
        <mxCell id="xFLzBGfGATKs0-8QM4aO-168" value="" style="endArrow=none;html=1;rounded=0;exitX=1;exitY=0;exitDx=0;exitDy=0;entryX=0.002;entryY=0.363;entryDx=0;entryDy=0;entryPerimeter=0;" edge="1" parent="1" source="xFLzBGfGATKs0-8QM4aO-65" target="xFLzBGfGATKs0-8QM4aO-81">
          <mxGeometry width="50" height="50" relative="1" as="geometry">
            <mxPoint x="50" y="610" as="sourcePoint" />
            <mxPoint x="240" y="490" as="targetPoint" />
            <Array as="points">
              <mxPoint x="-10" y="285" />
              <mxPoint x="-10" y="512" />
            </Array>
          </mxGeometry>
        </mxCell>
        <mxCell id="xFLzBGfGATKs0-8QM4aO-169" value="" style="endArrow=none;html=1;rounded=0;entryX=0;entryY=0.25;entryDx=0;entryDy=0;exitX=1.004;exitY=0.084;exitDx=0;exitDy=0;exitPerimeter=0;" edge="1" parent="1" source="xFLzBGfGATKs0-8QM4aO-65" target="xFLzBGfGATKs0-8QM4aO-85">
          <mxGeometry width="50" height="50" relative="1" as="geometry">
            <mxPoint x="230" y="690" as="sourcePoint" />
            <mxPoint x="280" y="640" as="targetPoint" />
            <Array as="points">
              <mxPoint x="-40" y="290" />
              <mxPoint x="-40" y="620" />
            </Array>
          </mxGeometry>
        </mxCell>
        <mxCell id="xFLzBGfGATKs0-8QM4aO-170" value="" style="endArrow=none;html=1;rounded=0;entryX=1;entryY=0;entryDx=0;entryDy=0;exitX=1;exitY=0.5;exitDx=0;exitDy=0;" edge="1" parent="1" source="xFLzBGfGATKs0-8QM4aO-79" target="xFLzBGfGATKs0-8QM4aO-85">
          <mxGeometry width="50" height="50" relative="1" as="geometry">
            <mxPoint x="230" y="700" as="sourcePoint" />
            <mxPoint x="280" y="650" as="targetPoint" />
            <Array as="points">
              <mxPoint x="730" y="215" />
              <mxPoint x="730" y="605" />
            </Array>
          </mxGeometry>
        </mxCell>
        <mxCell id="xFLzBGfGATKs0-8QM4aO-171" value="" style="endArrow=none;html=1;rounded=0;exitX=1;exitY=0.25;exitDx=0;exitDy=0;entryX=1;entryY=0.5;entryDx=0;entryDy=0;" edge="1" parent="1" source="xFLzBGfGATKs0-8QM4aO-85" target="xFLzBGfGATKs0-8QM4aO-83">
          <mxGeometry width="50" height="50" relative="1" as="geometry">
            <mxPoint x="570" y="680" as="sourcePoint" />
            <mxPoint x="670" y="620" as="targetPoint" />
            <Array as="points">
              <mxPoint x="690" y="620" />
              <mxPoint x="690" y="115" />
            </Array>
          </mxGeometry>
        </mxCell>
        <mxCell id="xFLzBGfGATKs0-8QM4aO-172" value="" style="endArrow=none;html=1;rounded=0;exitX=0;exitY=0;exitDx=0;exitDy=0;entryX=0;entryY=0;entryDx=0;entryDy=0;" edge="1" parent="1" source="xFLzBGfGATKs0-8QM4aO-66" target="xFLzBGfGATKs0-8QM4aO-61">
          <mxGeometry width="50" height="50" relative="1" as="geometry">
            <mxPoint x="-465" y="360" as="sourcePoint" />
            <mxPoint x="-415" y="310" as="targetPoint" />
            <Array as="points">
              <mxPoint x="-470" y="85" />
            </Array>
          </mxGeometry>
        </mxCell>
        <mxCell id="xFLzBGfGATKs0-8QM4aO-173" value="" style="endArrow=none;html=1;rounded=0;entryX=0;entryY=0.5;entryDx=0;entryDy=0;exitX=1;exitY=0.25;exitDx=0;exitDy=0;" edge="1" parent="1" source="xFLzBGfGATKs0-8QM4aO-65" target="xFLzBGfGATKs0-8QM4aO-128">
          <mxGeometry width="50" height="50" relative="1" as="geometry">
            <mxPoint x="-130" y="320" as="sourcePoint" />
            <mxPoint x="80" y="780" as="targetPoint" />
            <Array as="points">
              <mxPoint x="-100" y="300" />
              <mxPoint x="-100" y="765" />
            </Array>
          </mxGeometry>
        </mxCell>
        <mxCell id="xFLzBGfGATKs0-8QM4aO-175" value="" style="endArrow=none;html=1;rounded=0;exitX=1;exitY=0;exitDx=0;exitDy=0;entryX=1;entryY=0.25;entryDx=0;entryDy=0;" edge="1" parent="1" source="xFLzBGfGATKs0-8QM4aO-128" target="xFLzBGfGATKs0-8QM4aO-83">
          <mxGeometry width="50" height="50" relative="1" as="geometry">
            <mxPoint x="200" y="530" as="sourcePoint" />
            <mxPoint x="250" y="480" as="targetPoint" />
            <Array as="points">
              <mxPoint x="780" y="735" />
              <mxPoint x="780" y="100" />
            </Array>
          </mxGeometry>
        </mxCell>
        <mxCell id="xFLzBGfGATKs0-8QM4aO-176" value="" style="endArrow=none;html=1;rounded=0;exitX=1;exitY=0.5;exitDx=0;exitDy=0;entryX=1;entryY=0.75;entryDx=0;entryDy=0;" edge="1" parent="1" source="xFLzBGfGATKs0-8QM4aO-129" target="xFLzBGfGATKs0-8QM4aO-79">
          <mxGeometry width="50" height="50" relative="1" as="geometry">
            <mxPoint x="200" y="530" as="sourcePoint" />
            <mxPoint x="250" y="480" as="targetPoint" />
            <Array as="points">
              <mxPoint x="650" y="720" />
              <mxPoint x="650" y="230" />
            </Array>
          </mxGeometry>
        </mxCell>
      </root>
    </mxGraphModel>
  </diagram>
</mxfile>
